# xmcd
#
# Track frame offsets:
#	150
#	20783
#	36536
#	51732
#	68520
#	84277
#	103210
#	118831
#	134226
#	148321
#	166697
#	182307
#	195166
#	208377
#	224865
#	235871
#
# Disc length: 3321 seconds
# Revision: 0
# Processed by: cddbd v1.5.2PL0 Copyright (c) Steve Scherf et al.
# Submitted via: dBpowerAMP V12.0
#
DISCID=000cf710
DTITLE=Orquestra Paranaense de Viola Caipira - Musicas Diversas
DYEAR=2011
DGENRE=Sertanejo and Caipira and Regional
TTITLE0=Bandeira do Divino
TTITLE1=Violeiro Humano
TTITLE2=De Volta Pro Parana
TTITLE3=As Mocinhas da Cidade
TTITLE4=B'era D'agua
TTITLE5=Disparada
TTITLE6=Amanheceu, Peguei a Viola
TTITLE7=O Menino da Porteira
TTITLE8=Pagode em Brasilia
TTITLE9=Chico Mineiro
TTITLE10=Triste Berrante
TTITLE11=Pagode na Domingueira
TTITLE12=Saudade da Minha Terra
TTITLE13=Rio de Lagrimas
TTITLE14=Sem Itinerario
TTITLE15=Calix Bento
EXTD=
EXTT0=
EXTT1=
EXTT2=
EXTT3=
EXTT4=
EXTT5=
EXTT6=
EXTT7=
EXTT8=
EXTT9=
EXTT10=
EXTT11=
EXTT12=
EXTT13=
EXTT14=
EXTT15=
PLAYORDER=
